<!--?xml version="1.0" encoding="utf-8"?-->
<!-- Generator: Adobe Illustrator 18.1.1, SVG Export Plug-In . SVG Version: 6.00 Build 0)  -->

<svg version="1.1" id="_x32_" xmlns="http://www.w3.org/2000/svg" xmlns:xlink="http://www.w3.org/1999/xlink" x="0px" y="0px" viewBox="0 0 512 512" style="width: 256px; height: 256px; opacity: 1;" xml:space="preserve">
<style type="text/css">
	.st0{fill:#4B4B4B;}
</style>
<g>
	<path class="st0" d="M439.144,478.886L512,463.258l-71.513-314.807c-5.128-22.561-20.258-41.565-41.102-51.603l-61.162-29.451
		l-12.653-20.495C315.53,33.114,296.187,33.114,256,33.114c-40.187,0-59.53,0-69.568,13.788l-12.654,20.495l-61.162,29.451
		c-20.843,10.038-35.974,29.042-41.102,51.603L0,463.258l72.856,15.628l53.652-234.424l13.997,69.952L116.07,443.217
		c-0.776,4.063,0.148,8.276,2.555,11.642c2.407,3.375,6.079,5.616,10.177,6.218l93.116,13.544
		c7.884,1.142,15.315-3.995,17.024-11.783L256,385.116l17.059,77.723c1.71,7.788,9.14,12.925,17.023,11.783l93.116-13.544
		c4.099-0.602,7.77-2.844,10.177-6.218c2.408-3.367,3.332-7.579,2.556-11.642l-24.437-128.803l13.997-69.952L439.144,478.886z
		 M309.984,102.909L256,186.414l-53.992-83.505c-5.834-9.026-5.957-20.599-0.306-29.747l6.533-10.579
		c4.778-2.677,27.602-2.677,47.765-2.677c19.902,0,42.403,0,47.862,2.834l6.436,10.422C315.94,82.31,315.827,93.883,309.984,102.909
		z" style="fill: rgb(255, 255, 255);"></path>
</g>
</svg>
