<?xml version="1.0" encoding="iso-8859-1"?>
<!-- Generator: Adobe Illustrator 19.0.0, SVG Export Plug-In . SVG Version: 6.00 Build 0)  -->
<svg version="1.1" id="&#x30EC;&#x30A4;&#x30E4;&#x30FC;_1"
	 xmlns="http://www.w3.org/2000/svg" xmlns:xlink="http://www.w3.org/1999/xlink" x="0px" y="0px" viewBox="0 0 604 51.234"
	 style="enable-background:new 0 0 604 51.234;" xml:space="preserve">
<g id="XMLID_2_">
	<path id="XMLID_3_" d="M42.76,13.242l-0.967,0.059L39.771,1.143H17.564v20.039h11.631v-7.939h0.967v16.816h-0.967v-7.91H17.564
		v22.119h5.83v0.967H8.688v-0.967h5.801V1.143H8.688V0.176H42.76V13.242z"/>
	<path id="XMLID_5_" d="M89.459,45.234h-8.906V39.58l-3.486,3.486l-6.475,2.168h-4.336l-6.592-2.168l-2.227-4.482V15.82h-5.801
		v-0.938h8.877V38.32l1.963,3.984l3.984,1.963h4.014c0.312-0.098,0.971-0.317,1.978-0.659c1.006-0.341,2.388-0.795,4.146-1.362
		l3.955-3.984V15.82h-5.83v-0.938h8.906v29.385h5.83V45.234z"/>
	<path id="XMLID_7_" d="M126.578,19.746L124,22.324l-2.754-2.783l2.402-2.461l0.703,0.732l-1.787,1.729L124,21.006l1.611-1.641
		v-1.729l-1.787-1.816h-6.006c-1.133,0.527-2.471,1.211-4.014,2.051c-1.074,1.036-2.442,2.373-4.102,4.014l-2.021,6.123v16.26h5.83
		v0.967H98.805v-0.967h5.801V15.82h-5.801v-0.938h8.877V25.02l1.201-3.604c1.191-1.289,2.626-2.754,4.307-4.395l4.395-2.139h6.592
		l2.402,2.402V19.746z"/>
	<path id="XMLID_9_" d="M173.277,45.234h-14.736v-0.967h5.83v-22.5l-1.992-3.955l-3.955-1.992h-4.014
		c-0.957,0.333-1.938,0.664-2.944,0.996c-1.006,0.333-2.065,0.684-3.179,1.055l-3.955,3.955v22.441h5.83v0.967h-14.707v-0.967h5.801
		V15.82h-5.801v-0.938h8.877v5.625l3.491-3.486l6.483-2.139h4.313c0.332,0.098,1.046,0.322,2.141,0.674
		c1.095,0.352,2.591,0.84,4.488,1.465l2.2,4.512v22.734h5.83V45.234z"/>
	<path id="XMLID_11_" d="M197.33,45.234h-14.707v-0.967h5.801V15.82h-5.801v-0.938h8.877v29.385h5.83V45.234z M191.676,2.754
		l-2.754,2.754l-2.754-2.754L188.922,0L191.676,2.754z"/>
	<path id="XMLID_14_" d="M230.201,38.701l-2.168,4.307l-4.453,2.227h-4.424l-4.512-2.227l-2.168-6.592V15.82h-5.801v-0.938h5.801
		V0.176h3.076v14.707h7.91v0.938h-7.91v20.479l2.021,6.123l1.875,1.846h3.896l3.955-1.963l2.051-4.102L230.201,38.701z"/>
	<path id="XMLID_16_" d="M276.959,45.234h-8.906V39.58l-3.486,3.486l-6.475,2.168h-4.336l-6.592-2.168l-2.227-4.482V15.82h-5.801
		v-0.938h8.877V38.32l1.963,3.984l3.984,1.963h4.014c0.313-0.098,0.972-0.317,1.978-0.659c1.006-0.341,2.388-0.795,4.146-1.362
		l3.955-3.984V15.82h-5.83v-0.938h8.906v29.385h5.83V45.234z"/>
	<path id="XMLID_18_" d="M314.078,19.746l-2.578,2.578l-2.754-2.783l2.402-2.461l0.703,0.732l-1.787,1.729l1.436,1.465l1.611-1.641
		v-1.729l-1.787-1.816h-6.006c-1.133,0.527-2.471,1.211-4.014,2.051c-1.074,1.036-2.441,2.373-4.102,4.014l-2.021,6.123v16.26h5.83
		v0.967h-14.707v-0.967h5.801V15.82h-5.801v-0.938h8.877V25.02l1.201-3.604c1.191-1.289,2.627-2.754,4.307-4.395l4.395-2.139h6.592
		l2.402,2.402V19.746z"/>
	<path id="XMLID_20_" d="M352.838,28.447h-25.225v3.633c0.332,0.957,0.664,1.938,0.996,2.944c0.332,1.006,0.684,2.065,1.055,3.179
		c0.566,0.586,1.182,1.216,1.846,1.89s1.406,1.392,2.227,2.153c1.191,0.625,2.539,1.299,4.043,2.021h4.014
		c0.313-0.098,0.972-0.317,1.978-0.659c1.006-0.341,2.388-0.795,4.146-1.362l4.072-4.16l0.732,0.732l-4.336,4.248l-6.475,2.168
		h-4.336c-0.313-0.098-1.006-0.327-2.08-0.688c-1.074-0.361-2.539-0.854-4.395-1.479l-4.365-4.365l-2.168-6.475v-4.336
		c0.098-0.312,0.327-1.006,0.688-2.08c0.361-1.074,0.854-2.539,1.479-4.395l4.365-4.395l6.475-2.139h6.504l4.365,2.139l2.227,2.227
		c0.273,0.567,0.591,1.216,0.952,1.948s0.767,1.548,1.216,2.446V28.447z M349.762,27.48v-5.713l-1.963-3.955l-3.984-1.992h-6.035
		c-0.625,0.313-1.274,0.64-1.948,0.981c-0.674,0.342-1.372,0.699-2.095,1.069l-4.072,4.014l-1.846,5.596H349.762z"/>
	<path id="XMLID_23_" d="M403.727,26.338h-37.822v-0.967h37.822V26.338z"/>
	<path id="XMLID_25_" d="M442.955,40.723l-2.285,2.344c-0.566,0.274-1.211,0.591-1.934,0.952c-0.723,0.362-1.533,0.767-2.432,1.216
		h-8.643c-0.547-0.253-1.182-0.557-1.904-0.908s-1.543-0.771-2.461-1.26l-1.699-1.67l-2.695,5.361V34.307l1.992,3.955
		c0.176,0.371,0.508,1.036,0.996,1.992l1.992,1.992l4.014,2.021h8.174c0.508-0.234,1.094-0.517,1.758-0.85
		c0.664-0.332,1.416-0.722,2.256-1.172l1.934-1.875v-3.838c-0.449-0.488-1.094-1.103-1.934-1.846
		c-0.078-0.039-0.229-0.117-0.454-0.234s-0.522-0.273-0.894-0.469l-2.725-1.406l-7.002-2.783c-1.152-0.449-2.256-0.908-3.311-1.377
		s-2.08-0.947-3.076-1.436c-0.254-0.098-0.503-0.205-0.747-0.322s-0.474-0.244-0.688-0.381l-2.285-2.344v-4.57l2.285-2.344
		c0.566-0.273,1.211-0.59,1.934-0.952c0.723-0.361,1.533-0.757,2.432-1.187h8.643c0.566,0.254,1.216,0.562,1.948,0.923
		c0.732,0.362,1.548,0.767,2.446,1.216c0.254,0.274,0.518,0.547,0.791,0.82c0.273,0.274,0.566,0.567,0.879,0.879l2.695-5.42v12.48
		l-1.992-3.955c-0.098-0.176-0.225-0.425-0.381-0.747s-0.361-0.728-0.615-1.216c-0.469-0.488-0.869-0.894-1.201-1.216
		s-0.596-0.581-0.791-0.776l-4.014-2.051h-8.145c-0.508,0.234-1.099,0.523-1.772,0.864c-0.674,0.342-1.431,0.737-2.271,1.187
		c-0.273,0.274-0.571,0.571-0.894,0.894s-0.659,0.649-1.011,0.981v1.729c0.215,0.254,0.483,0.532,0.806,0.835
		c0.322,0.303,0.688,0.64,1.099,1.011c0.078,0.04,0.229,0.117,0.454,0.234s0.532,0.274,0.923,0.469l2.725,1.406l7.002,2.813
		c2.48,0.996,4.6,1.924,6.357,2.783c0.469,0.195,0.947,0.43,1.436,0.703c0.352,0.352,0.718,0.723,1.099,1.113
		c0.381,0.391,0.776,0.801,1.187,1.23V40.723z"/>
	<path id="XMLID_27_" d="M477.467,38.701l-2.168,4.307l-4.453,2.227h-4.424l-4.512-2.227l-2.168-6.592V15.82h-5.801v-0.938h5.801
		V0.176h3.076v14.707h7.91v0.938h-7.91v20.479l2.021,6.123l1.875,1.846h3.896l3.955-1.963l2.051-4.102L477.467,38.701z"/>
	<path id="XMLID_29_" d="M516.285,32.227l-2.168,6.475l-4.395,4.365l-6.475,2.168h-4.307l-6.475-2.168l-4.395-4.365l-2.168-6.475
		v-4.336c0.098-0.312,0.327-1.006,0.688-2.08c0.361-1.074,0.854-2.539,1.479-4.395l4.395-4.395l6.475-2.139h4.307l6.475,2.139
		l4.395,4.395l2.168,6.475V32.227z M513.209,32.08v-4.072c-0.098-0.312-0.317-0.971-0.659-1.978
		c-0.342-1.006-0.796-2.388-1.362-4.146c-0.547-0.566-1.162-1.182-1.846-1.846c-0.684-0.664-1.436-1.387-2.256-2.168l-4.014-2.051
		h-3.955c-1.133,0.527-2.471,1.211-4.014,2.051c-1.074,1.036-2.441,2.373-4.102,4.014l-2.021,6.123v4.072l2.021,6.123
		c0.566,0.567,1.187,1.187,1.86,1.86s1.421,1.402,2.241,2.183l4.014,2.021h3.955c0.625-0.312,1.27-0.634,1.934-0.967
		c0.664-0.332,1.357-0.684,2.08-1.055l4.102-4.043L513.209,32.08z"/>
	<path id="XMLID_32_" d="M555.045,19.746l-2.578,2.578l-2.754-2.783l2.402-2.461l0.703,0.732l-1.787,1.729l1.436,1.465l1.611-1.641
		v-1.729l-1.787-1.816h-6.006c-1.133,0.527-2.471,1.211-4.014,2.051c-1.074,1.036-2.441,2.373-4.102,4.014l-2.021,6.123v16.26h5.83
		v0.967h-14.707v-0.967h5.801V15.82h-5.801v-0.938h8.877V25.02l1.201-3.604c1.191-1.289,2.627-2.754,4.307-4.395l4.395-2.139h6.592
		l2.402,2.402V19.746z"/>
	<path id="XMLID_34_" d="M593.805,28.447H568.58v3.633c0.332,0.957,0.664,1.938,0.996,2.944c0.332,1.006,0.684,2.065,1.055,3.179
		c0.566,0.586,1.182,1.216,1.846,1.89s1.406,1.392,2.227,2.153c1.191,0.625,2.539,1.299,4.043,2.021h4.014
		c0.313-0.098,0.972-0.317,1.978-0.659c1.006-0.341,2.388-0.795,4.146-1.362l4.072-4.16l0.732,0.732l-4.336,4.248l-6.475,2.168
		h-4.336c-0.313-0.098-1.006-0.327-2.08-0.688c-1.074-0.361-2.539-0.854-4.395-1.479l-4.365-4.365l-2.168-6.475v-4.336
		c0.098-0.312,0.327-1.006,0.688-2.08c0.361-1.074,0.854-2.539,1.479-4.395l4.365-4.395l6.475-2.139h6.504l4.365,2.139l2.227,2.227
		c0.273,0.567,0.591,1.216,0.952,1.948s0.767,1.548,1.216,2.446V28.447z M590.729,27.48v-5.713l-1.963-3.955l-3.984-1.992h-6.035
		c-0.625,0.313-1.274,0.64-1.948,0.981c-0.674,0.342-1.372,0.699-2.095,1.069l-4.072,4.014l-1.846,5.596H590.729z"/>
</g>
</svg>
